HIERARCHY
ROOT Hips
{
	OFFSET 0.000000 0.000000 0.000000
	CHANNELS 6 Xposition Yposition Zposition Zrotation Yrotation Xrotation 
	JOINT LHipJoint
	{
		OFFSET 0.000000 0.000000 0.000000
		CHANNELS 3 Zrotation Yrotation Xrotation
		JOINT LeftUpLeg
		{
			OFFSET 1.363060 -1.794630 0.839290
			CHANNELS 3 Zrotation Yrotation Xrotation
			JOINT LeftLeg
			{
				OFFSET 2.448110 -6.726130 0.000000
				CHANNELS 3 Zrotation Yrotation Xrotation
				JOINT LeftFoot
				{
					OFFSET 2.562200 -7.039590 0.000000
					CHANNELS 3 Zrotation Yrotation Xrotation
					JOINT LeftToeBase
					{
						OFFSET 0.157640 -0.433110 2.322550
						CHANNELS 3 Zrotation Yrotation Xrotation
						End Site
						{
							OFFSET 0.000000 0.000000 0.000000
						}
					}
				}
			}
		}
	}
	JOINT RHipJoint
	{
		OFFSET 0.000000 0.000000 0.000000
		CHANNELS 3 Zrotation Yrotation Xrotation
		JOINT RightUpLeg
		{
			OFFSET -1.305520 -1.794630 0.839290
			CHANNELS 3 Zrotation Yrotation Xrotation
			JOINT RightLeg
			{
				OFFSET -2.542530 -6.985550 0.000000
				CHANNELS 3 Zrotation Yrotation Xrotation
				JOINT RightFoot
				{
					OFFSET -2.568260 -7.056230 0.000000
					CHANNELS 3 Zrotation Yrotation Xrotation
					JOINT RightToeBase
					{
						OFFSET -0.164730 -0.452590 2.363150
						CHANNELS 3 Zrotation Yrotation Xrotation
						End Site
						{
							OFFSET 0.000000 0.000000 0.000000
						}
					}
				}
			}
		}
	}
	JOINT LowerBack
	{
		OFFSET 0.000000 0.000000 0.000000
		CHANNELS 3 Zrotation Yrotation Xrotation
		JOINT Spine
		{
			OFFSET 0.028270 2.035590 -0.193380
			CHANNELS 3 Zrotation Yrotation Xrotation
			JOINT Spine1
			{
				OFFSET 0.056720 2.048850 -0.042750
				CHANNELS 3 Zrotation Yrotation Xrotation
				JOINT Neck
				{
					OFFSET 0.000000 0.000000 0.000000
					CHANNELS 3 Zrotation Yrotation Xrotation
					JOINT Neck1
					{
						OFFSET -0.054170 1.746240 0.172020
						CHANNELS 3 Zrotation Yrotation Xrotation
						JOINT Head
						{
							OFFSET 0.104070 1.761360 -0.123970
							CHANNELS 3 Zrotation Yrotation Xrotation
							End Site
							{
								OFFSET 0.000000 0.000000 0.000000
							}
						}
					}
				}
				JOINT LeftShoulder
				{
					OFFSET 0.000000 0.000000 0.000000
					CHANNELS 3 Zrotation Yrotation Xrotation
					JOINT LeftArm
					{
						OFFSET 3.362410 1.200890 -0.311210
						CHANNELS 3 Zrotation Yrotation Xrotation
						JOINT LeftForeArm
						{
							OFFSET 4.983000 -0.000000 -0.000000
							CHANNELS 3 Zrotation Yrotation Xrotation
							JOINT LeftHand
							{
								OFFSET 3.483560 -0.000000 -0.000000
								CHANNELS 3 Zrotation Yrotation Xrotation
								JOINT LeftFingerBase
								{
									OFFSET 0.000000 0.000000 0.000000
									CHANNELS 3 Zrotation Yrotation Xrotation
									JOINT LeftHandIndex1
									{
										OFFSET 0.715260 -0.000000 -0.000000
										CHANNELS 3 Zrotation Yrotation Xrotation
										End Site
										{
											OFFSET 0.000000 0.000000 0.000000
										}
									}
								}
								JOINT LThumb
								{
									OFFSET 0.000000 0.000000 0.000000
									CHANNELS 3 Zrotation Yrotation Xrotation
									End Site
									{
										OFFSET 0.000000 0.000000 0.000000
									}
								}
							}
						}
					}
				}
				JOINT RightShoulder
				{
					OFFSET 0.000000 0.000000 0.000000
					CHANNELS 3 Zrotation Yrotation Xrotation
					JOINT RightArm
					{
						OFFSET -3.136600 1.374050 -0.404650
						CHANNELS 3 Zrotation Yrotation Xrotation
						JOINT RightForeArm
						{
							OFFSET -5.241900 -0.000000 -0.000000
							CHANNELS 3 Zrotation Yrotation Xrotation
							JOINT RightHand
							{
								OFFSET -3.444170 -0.000000 -0.000000
								CHANNELS 3 Zrotation Yrotation Xrotation
								JOINT RightFingerBase
								{
									OFFSET 0.000000 0.000000 0.000000
									CHANNELS 3 Zrotation Yrotation Xrotation
									JOINT RightHandIndex1
									{
										OFFSET -0.622530 -0.000000 -0.000000
										CHANNELS 3 Zrotation Yrotation Xrotation
										End Site
										{
											OFFSET 0.000000 0.000000 0.000000
										}
									}
								}
								JOINT RThumb
								{
									OFFSET 0.000000 0.000000 0.000000
									CHANNELS 3 Zrotation Yrotation Xrotation
									End Site
									{
										OFFSET 0.000000 0.000000 0.000000
									}
								}
							}
						}
					}
				}
			}
		}
	}
}
MOTION
Frames: 12
Frame Time: 0.008333
0.042601 16.876838 -7.793945 3.018010 -3.464369 20.608389 -0.699243 -2.959598 -4.487225 -13.600380 -11.798218 -48.423915 1.274502 12.115557 31.253286 0.662476 -2.895278 7.057223 0.095500 -1.992900 -5.486000 -0.143188 0.913637 -0.869330 15.553153 -1.278646 -2.320169 -3.086128 -11.591384 35.893785 -0.719616 12.699206 15.836730 -0.175600 2.699000 -7.442000 -6.186740 1.860514 -9.080222 -0.849664 2.997583 -10.847093 -0.041479 1.810341 -1.724857 -1.686683 -2.232428 -10.880494 5.697728 -3.401747 10.971669 0.874100 -1.345900 4.320600 12.580243 7.823597 0.577139 -97.868072 29.281802 -54.355370 3.131439 -9.543242 -0.099503 -1.098610 0.253836 70.040318 7.324746 -13.360672 -1.714100 -7.125000 0.000000 0.000000 -13.362000 17.670700 8.922400 -12.977445 -7.060447 -0.585639 92.403808 7.834200 36.736908 -42.273346 54.867938 -19.925537 0.362599 -1.433695 -18.378838 -21.290451 -29.985316 10.457100 7.125000 0.000000 0.000000 10.917300 -59.779000 -3.967100
0.042212 16.881558 -7.659774 3.117742 -3.559447 20.568562 -0.683515 -2.935677 -4.442165 -13.947912 -11.693033 -48.346131 1.428335 12.322636 31.963495 0.670458 -3.230517 6.411588 0.205128 -2.806631 -7.747833 -0.179966 0.936880 -0.921416 15.380470 -0.921961 -2.951741 -3.441523 -12.053803 37.501194 -0.771093 12.325337 17.199674 -0.137362 2.366794 -6.521546 -6.394889 1.875688 -8.914294 -0.904626 3.032335 -10.907769 -0.046287 1.832259 -1.920643 -1.719922 -2.259714 -10.907380 5.847476 -3.457546 11.000830 0.942845 -1.365823 4.357541 12.562558 7.794726 0.548873 -97.739314 29.103652 -54.841014 3.155648 -9.553007 -0.094985 -1.106133 0.266444 70.647524 7.391934 -13.560378 -1.755969 -7.125000 0.000000 0.000000 -13.303269 17.481328 8.937602 -12.981972 -7.035481 -0.555973 92.501385 7.056306 36.658300 -42.273386 54.853282 -19.911881 0.360743 -1.435236 -18.429658 -21.450454 -30.207557 10.613838 7.125000 0.000000 0.000000 10.873303 -60.037895 -4.017893
0.042106 16.886480 -7.525531 3.226923 -3.652371 20.526430 -0.668921 -2.911439 -4.396973 -14.305294 -11.591929 -48.258302 1.580135 12.526160 32.663264 0.677181 -3.548785 5.765272 0.313379 -3.594766 -9.939665 -0.216467 0.960103 -0.973544 15.196103 -0.573162 -3.586568 -3.800081 -12.515468 39.112795 -0.823615 11.971955 18.560014 -0.099735 2.032389 -5.595301 -6.608305 1.886335 -8.753364 -0.959980 3.062765 -10.965237 -0.051458 1.851389 -2.107134 -1.748060 -2.283664 -10.935341 5.994900 -3.509036 11.029081 1.009628 -1.383547 4.393502 12.545518 7.766241 0.521211 -97.614945 28.914083 -55.297478 3.178566 -9.561505 -0.090377 -1.113708 0.278529 71.210969 7.454983 -13.761227 -1.797195 -7.125000 0.000000 0.000000 -13.247173 17.290773 8.954980 -12.986674 -7.010941 -0.525894 92.605173 6.273355 36.576433 -42.289177 54.847066 -19.909112 0.359625 -1.437158 -18.478079 -21.593715 -30.460985 10.771966 7.125000 0.000000 0.000000 10.867043 -60.323407 -4.090855
0.045604 16.893977 -7.390361 3.456849 -3.717759 20.454843 -0.668814 -2.883155 -4.350083 -14.788548 -11.542967 -48.042114 1.705953 12.684260 33.229645 0.667824 -3.650183 5.110255 0.404018 -4.055849 -11.237047 -0.249424 0.983077 -1.026215 14.862439 -0.325126 -4.262977 -4.199063 -12.967489 40.777960 -0.889501 11.880347 19.887080 -0.069902 1.669884 -4.595052 -6.889033 1.839145 -8.656292 -1.020357 3.037972 -10.981722 -0.061273 1.834898 -2.174858 -1.711023 -2.264995 -10.977026 6.112635 -3.505456 11.045716 1.051341 -1.373170 4.416953 12.536731 7.742688 0.501254 -97.546669 28.578590 -55.381087 3.184990 -9.553804 -0.084614 -1.121949 0.283933 71.215258 7.465152 -13.976686 -1.830192 -7.125000 0.000000 0.000000 -13.224760 17.085109 9.000170 -12.993625 -6.991828 -0.490532 92.788321 5.425790 36.452932 -42.506235 54.948692 -20.045439 0.367930 -1.443953 -18.495858 -21.523064 -31.112918 10.947849 7.125000 0.000000 0.000000 11.342964 -60.949010 -4.447083
0.048990 16.902264 -7.255425 3.684919 -3.783397 20.377422 -0.670296 -2.855055 -4.302985 -15.268204 -11.489194 -47.809057 1.827557 12.835739 33.776013 0.659363 -3.748174 4.465271 0.481259 -4.448885 -12.342967 -0.282076 1.006099 -1.079689 14.533348 -0.075095 -4.941932 -4.602110 -13.417087 42.443855 -0.961719 11.737596 21.228405 -0.043067 1.336962 -3.676548 -7.171443 1.791402 -8.559844 -1.078754 3.012626 -10.994867 -0.066110 1.818516 -2.236331 -1.666024 -2.253477 -11.008863 6.220925 -3.511160 11.058455 1.086503 -1.367802 4.435260 12.528300 7.719868 0.483007 -97.485304 28.254398 -55.262261 3.193488 -9.560968 -0.081132 -1.128471 0.285038 71.009097 7.462258 -14.148727 -1.854303 -7.125000 0.000000 0.000000 -13.213952 16.920130 9.041602 -12.999711 -6.972684 -0.454833 92.974267 4.565900 36.319415 -42.743358 55.060613 -20.196304 0.376823 -1.449805 -18.501374 -21.445393 -31.722118 11.106085 7.125000 0.000000 0.000000 11.801797 -61.530487 -4.786719
0.051711 16.915204 -7.121865 3.902057 -3.850503 20.265647 -0.681130 -2.828037 -4.254669 -15.726672 -11.407087 -47.476660 1.924343 12.948231 34.204527 0.656178 -3.826103 3.879369 0.479599 -4.441207 -12.321384 -0.312934 1.029410 -1.137890 14.231189 0.186685 -5.635879 -5.029098 -13.852414 44.114044 -1.071225 11.293669 22.653703 -0.033884 1.178252 -3.239435 -7.463769 1.740405 -8.467062 -1.125489 2.984027 -10.988351 -0.041637 1.802781 -2.260998 -1.574130 -2.284067 -10.982701 6.273587 -3.571536 11.048256 1.083079 -1.391928 4.423275 12.521969 7.701359 0.474822 -97.464641 27.996764 -53.951323 3.214198 -9.655678 -0.091090 -1.124867 0.260833 69.563611 7.382441 -14.065089 -1.826079 -7.125000 0.000000 0.000000 -13.271490 16.994738 9.060902 -13.000703 -6.953364 -0.417157 93.176691 3.633432 36.126919 -43.098649 55.233170 -20.432784 0.389175 -1.450106 -18.434685 -21.326388 -32.079665 11.160407 7.125000 0.000000 0.000000 12.159996 -61.852109 -5.028649
0.055194 16.928688 -6.987858 4.090333 -3.909080 20.152556 -0.693082 -2.803471 -4.207586 -16.153010 -11.318327 -47.126278 2.016237 13.053390 34.609364 0.654369 -3.901339 3.299601 0.470957 -4.400326 -12.206035 -0.343027 1.051571 -1.195880 13.961892 0.438443 -6.329186 -5.459691 -14.282274 45.776851 -1.182732 10.793456 24.014072 -0.031693 1.129101 -3.104180 -7.706796 1.696451 -8.374442 -1.169683 2.957351 -10.980022 -0.033506 1.786123 -2.277561 -1.503137 -2.311096 -10.981021 6.340363 -3.626644 11.053058 1.091641 -1.412743 4.425807 12.515897 7.683620 0.467576 -97.451332 27.732885 -52.542468 3.237194 -9.758660 -0.102494 -1.119550 0.232825 68.006335 7.316939 -13.941869 -1.795414 -7.125000 0.000000 0.000000 -13.322962 17.106592 9.064500 -13.003376 -6.937265 -0.381747 93.374373 2.765102 35.958665 -43.340854 55.350750 -20.590207 0.398245 -1.451322 -18.379579 -21.243063 -32.373036 11.212152 7.125000 0.000000 0.000000 12.439036 -62.118804 -5.221843
0.061414 16.944126 -6.852244 4.174922 -3.937018 20.034731 -0.709053 -2.787716 -4.164935 -16.463914 -11.205667 -46.711283 2.090555 13.132209 34.929140 0.657501 -3.966900 2.741870 0.437233 -4.240164 -11.753824 -0.370372 1.069599 -1.253115 13.810656 0.654196 -7.020195 -5.903233 -14.692495 47.413134 -1.301429 10.091030 25.141178 -0.054626 1.473551 -4.053377 -7.772714 1.677801 -8.282408 -1.204749 2.937582 -10.965181 -0.084083 1.766152 -2.265005 -1.507234 -2.325330 -11.067290 6.457839 -3.662825 11.111750 1.143264 -1.421667 4.480492 12.510760 7.668650 0.463705 -97.464440 27.446571 -50.781842 3.268403 -9.891356 -0.119094 -1.108078 0.191154 66.047436 7.302863 -13.676444 -1.755983 -7.125000 0.000000 0.000000 -13.352639 17.352257 9.011683 -13.012088 -6.932744 -0.354483 93.555022 2.127194 35.877506 -43.176788 55.270827 -20.463611 0.395520 -1.455827 -18.366086 -21.287918 -32.435850 11.254644 7.125000 0.000000 0.000000 12.433692 -62.188172 -5.239950
0.068182 16.958871 -6.717838 4.287046 -3.974566 19.936234 -0.725594 -2.771355 -4.122410 -16.789188 -11.119491 -46.305374 2.160358 13.205301 35.228911 0.658695 -4.006807 2.197957 0.403389 -4.075497 -11.289487 -0.396580 1.087450 -1.307843 13.623621 0.848188 -7.727537 -6.349259 -15.091734 49.035337 -1.399680 9.418838 26.040396 -0.078356 1.796161 -4.942985 -7.854638 1.648954 -8.198521 -1.241369 2.907083 -10.957834 -0.133577 1.741047 -2.263815 -1.523467 -2.316161 -11.148919 6.606268 -3.671274 11.214348 1.191227 -1.412546 4.484023 12.504728 7.654395 0.457893 -97.491874 27.125741 -49.487961 3.293783 -9.991519 -0.130367 -1.101764 0.157403 64.549371 7.335520 -13.507377 -1.739523 -7.125000 0.000000 0.000000 -13.344508 17.508133 8.959017 -13.021813 -6.929150 -0.328887 93.742720 1.524822 35.811595 -42.941086 55.153876 -20.285638 0.393046 -1.462844 -18.406914 -21.271537 -32.556785 11.279001 7.125000 0.000000 0.000000 12.542027 -62.297139 -5.319603
0.076290 16.971921 -6.586389 4.466480 -4.035604 19.884982 -0.743528 -2.753513 -4.080189 -17.149587 -11.098057 -45.921675 2.219122 13.264393 35.479779 0.655150 -3.984001 1.687822 0.369250 -3.899822 -10.795511 -0.420009 1.104869 -1.356442 13.349076 0.988990 -8.474801 -6.801354 -15.464130 50.623121 -1.447950 8.820549 26.382554 -0.104038 2.065381 -5.686933 -7.975688 1.595180 -8.134545 -1.281784 2.850353 -10.968803 -0.180427 1.703391 -2.290406 -1.569366 -2.249785 -11.219202 6.830355 -3.611935 11.424273 1.230243 -1.359314 4.362513 12.496508 7.641887 0.447338 -97.554328 26.720535 -49.335015 3.304914 -10.012156 -0.128619 -1.108059 0.143012 64.177788 7.482410 -13.573853 -1.779213 -7.125000 0.000000 0.000000 -13.243959 17.444525 8.906719 -13.034018 -6.927825 -0.307368 93.947649 1.009314 35.782958 -42.530273 54.946414 -19.982076 0.391184 -1.476002 -18.580526 -21.105468 -32.819793 11.259026 7.125000 0.000000 0.000000 12.928243 -62.502906 -5.549704
0.083129 16.983763 -6.456552 4.679877 -4.144862 19.844180 -0.761600 -2.733797 -4.037399 -17.545125 -11.057582 -45.550231 2.274660 13.319817 35.718102 0.650684 -3.941980 1.161864 0.345674 -3.777977 -10.452934 -0.442896 1.123427 -1.403678 13.020590 1.130719 -9.228269 -7.253194 -15.822270 52.188868 -1.463428 8.242515 26.424024 -0.119421 2.227825 -6.135764 -8.158706 1.537468 -8.099299 -1.325997 2.800043 -10.977666 -0.206064 1.670615 -2.306675 -1.599896 -2.182421 -11.263916 7.034689 -3.549968 11.564212 1.279954 -1.309810 4.288188 12.488718 7.629009 0.438300 -97.617623 26.324194 -49.044919 3.321260 -10.052364 -0.127861 -1.115042 0.128006 63.695645 7.619628 -13.659310 -1.820071 -7.125000 0.000000 0.000000 -13.148005 17.362408 8.862931 -13.046575 -6.926846 -0.283182 94.187836 0.488221 35.738338 -42.094926 54.724619 -19.661431 0.389458 -1.491997 -18.716578 -20.885095 -33.230566 11.250442 7.125000 0.000000 0.000000 13.496511 -62.834824 -5.908817
0.087738 16.993481 -6.329545 4.952897 -4.338772 19.821726 -0.779914 -2.710792 -3.993608 -18.002351 -10.983678 -45.200302 2.324533 13.368801 35.934402 0.644604 -3.866225 0.608127 0.340641 -3.750635 -10.376147 -0.464828 1.143984 -1.448519 12.597407 1.274076 -9.992626 -7.704583 -16.155380 53.715927 -1.421341 7.700039 25.937619 -0.116723 2.202817 -6.066500 -8.450511 1.472846 -8.114486 -1.376875 2.761001 -10.982831 -0.194464 1.646404 -2.304825 -1.603445 -2.113321 -11.263744 7.204345 -3.483384 11.581286 1.348439 -1.266851 4.296697 12.481681 7.615482 0.431928 -97.682397 25.943415 -48.514051 3.346760 -10.126933 -0.128844 -1.123232 0.111918 63.019407 7.739868 -13.778093 -1.862978 -7.125000 0.000000 0.000000 -13.060115 17.247799 8.834085 -13.059752 -6.926473 -0.254316 94.489919 -0.042677 35.665659 -41.616507 54.477662 -19.310797 0.387969 -1.512971 -18.786692 -20.569387 -33.900751 11.261856 7.125000 0.000000 0.000000 14.384382 -63.388207 -6.494418
